HIERARCHY
ROOT Hips
{
 OFFSET 0.000000 0.000000 0.000000
 CHANNELS 6 Xposition Yposition Zposition Yrotation Xrotation Zrotation
 JOINT Chest
 {
  OFFSET 0.000000 9.303000 0.001900
  CHANNELS 3 Yrotation Xrotation Zrotation
  JOINT Chest2
  {
   OFFSET 0.000000 9.301100 -0.003900
   CHANNELS 3 Yrotation Xrotation Zrotation
   JOINT Chest3
   {
    OFFSET 0.000000 9.262800 0.000000
    CHANNELS 3 Yrotation Xrotation Zrotation
    JOINT Chest4
    {
     OFFSET 0.000000 9.253300 0.000000
     CHANNELS 3 Yrotation Xrotation Zrotation
     JOINT Neck
     {
      OFFSET 0.000000 14.010300 0.000000
      CHANNELS 3 Yrotation Xrotation Zrotation
      JOINT Head
      {
       OFFSET 0.000000 8.657600 -0.008300
       CHANNELS 3 Yrotation Xrotation Zrotation
       End Site
       {
        OFFSET 0.000000 16.540200 -0.004400
       }
      }
     }
     JOINT RightCollar
     {
      OFFSET -2.834100 9.267700 0.000000
      CHANNELS 3 Yrotation Xrotation Zrotation
      JOINT RightShoulder
      {
       OFFSET -13.135200 0.000000 0.000000
       CHANNELS 3 Yrotation Xrotation Zrotation
       JOINT RightElbow
       {
        OFFSET 0.000000 -28.893500 0.000000
        CHANNELS 3 Yrotation Xrotation Zrotation
        JOINT RightWrist
        {
         OFFSET 0.000000 -23.344000 0.000000
         CHANNELS 3 Yrotation Xrotation Zrotation
         End Site
         {
          OFFSET 0.000000 -17.223000 0.000000
         }
        }
       }
      }
     }
     JOINT LeftCollar
     {
      OFFSET 2.834100 9.267700 0.000000
      CHANNELS 3 Yrotation Xrotation Zrotation
      JOINT LeftShoulder
      {
       OFFSET 13.135200 0.000000 0.000000
       CHANNELS 3 Yrotation Xrotation Zrotation
       JOINT LeftElbow
       {
        OFFSET 0.000000 -28.893500 0.000000
        CHANNELS 3 Yrotation Xrotation Zrotation
        JOINT LeftWrist
        {
         OFFSET 0.000000 -23.344000 0.000000
         CHANNELS 3 Yrotation Xrotation Zrotation
         End Site
         {
          OFFSET 0.000000 -17.223000 0.000000
         }
        }
       }
      }
     }
    }
   }
  }
 }
 JOINT RightHip
 {
  OFFSET -7.547200 -0.009500 -0.001000
  CHANNELS 3 Yrotation Xrotation Zrotation
  JOINT RightKnee
  {
   OFFSET 0.000000 -39.762800 0.000900
   CHANNELS 3 Yrotation Xrotation Zrotation
   JOINT RightAnkle
   {
    OFFSET 0.000000 -38.588200 0.001600
    CHANNELS 3 Yrotation Xrotation Zrotation
    JOINT RightToe
    {
     OFFSET 0.000000 -4.693300 10.419700
     CHANNELS 3 Yrotation Xrotation Zrotation
     End Site
     {
      OFFSET 0.000000 -1.379900 5.669300
     }
    }
   }
  }
 }
 JOINT LeftHip
 {
  OFFSET 7.547200 -0.009500 -0.001000
  CHANNELS 3 Yrotation Xrotation Zrotation
  JOINT LeftKnee
  {
   OFFSET 0.000000 -39.762800 0.000900
   CHANNELS 3 Yrotation Xrotation Zrotation
   JOINT LeftAnkle
   {
    OFFSET 0.000000 -38.588200 0.001600
    CHANNELS 3 Yrotation Xrotation Zrotation
    JOINT LeftToe
    {
     OFFSET 0.000000 -4.693300 10.419700
     CHANNELS 3 Yrotation Xrotation Zrotation
     End Site
     {
      OFFSET 0.000000 -1.379900 5.669300
     }
    }
   }
  }
 }
}
MOTION
Frames: 7
Frame Time: 0.008333
-7.391199 45.791764 25.852610 158.899499 -17.756999 0.845750 3.646015 11.726874 1.230424 0.396189 0.940644 0.128860 0.556644 1.579822 0.176381 4.296289 10.826657 1.696210 3.264730 30.434897 1.443633 3.298737 8.434523 0.865633 1.663458 0.679878 -7.100199 0.821713 -5.616190 -1.470955 9.813549 -82.169309 5.707219 -9.506155 -6.361186 -28.544275 -8.985987 0.428000 -2.858783 10.762136 -6.359273 7.495196 44.224117 -63.438432 -68.662250 6.978062 0.297658 14.358397 -9.322307 -71.306966 11.457346 -119.531883 86.329274 -121.497573 -13.111252 -16.241258 4.762402 0.305997 1.113494 -0.284568 -0.200054 -69.084851 19.597425 72.240818 77.096143 69.976518 -10.119921 -4.843788 2.150166 -0.080288 0.595811 -0.084736
-7.402502 45.785407 25.828125 159.015250 -17.761643 0.919599 3.562870 11.743882 1.146160 0.384708 0.940947 0.128801 0.564558 1.577770 0.178704 4.256534 10.822213 1.685232 3.753676 30.390202 1.684627 3.758830 8.391562 1.005667 1.691120 0.683882 -7.110240 0.808821 -5.613364 -1.423715 9.912240 -82.247975 5.662305 -9.485539 -6.406716 -28.592859 -9.013734 0.371409 -2.862214 10.642223 -6.597413 7.618555 44.081176 -63.700692 -68.555976 7.028631 0.186279 14.302681 -8.984536 -71.344646 11.103976 -120.380818 86.227318 -122.255129 -13.952237 -16.687329 4.908220 0.112443 1.103911 -0.255469 -0.154563 -69.076224 19.347802 72.308196 77.063380 70.043933 -10.128739 -4.799015 2.104431 -0.050448 0.558623 -0.063805
-7.406733 45.778383 25.807523 159.106128 -17.764419 0.955335 3.497807 11.759084 1.104147 0.381303 0.937641 0.128576 0.566343 1.579508 0.182262 4.251590 10.818793 1.699365 4.184340 30.335181 1.885261 4.204271 8.343603 1.131110 1.676483 0.682467 -7.138486 0.850162 -5.625401 -1.310617 10.482854 -82.308359 5.104038 -9.472352 -6.462424 -28.647479 -9.100616 0.227928 -2.876281 10.570179 -6.755700 7.743797 43.956223 -63.994842 -68.451091 7.062451 0.063866 14.283984 -8.768095 -71.375027 10.896725 -121.098891 86.127057 -122.907715 -14.577687 -17.086366 5.048135 -0.038154 1.061622 -0.245134 -0.189723 -69.069787 19.220211 72.325359 77.046148 70.081657 -10.156225 -4.773707 2.040352 0.004341 0.542583 -0.033537
-7.399157 45.769163 25.797613 159.147862 -17.734801 0.917697 3.500524 11.734237 1.149269 0.367559 0.936151 0.128805 0.576397 1.578271 0.185187 4.248900 10.813299 1.743806 4.572056 30.282726 2.040389 4.637715 8.291817 1.244430 1.656919 0.688369 -7.192945 0.894902 -5.648630 -1.195114 11.106197 -82.369854 4.489328 -9.451373 -6.536570 -28.716442 -9.194044 0.090021 -2.915077 10.506593 -6.915279 7.863692 43.842081 -64.342793 -68.332685 7.065073 -0.072937 14.308400 -8.792965 -71.422192 10.926547 -122.381277 86.071053 -124.202811 -14.510079 -17.434450 5.186669 -0.013087 0.980427 -0.247616 -0.409864 -69.095816 19.337993 72.325441 77.034990 70.120522 -10.156018 -4.789554 1.969220 0.047611 0.566657 -0.021444
-7.387308 45.758977 25.792293 159.169561 -17.693420 0.853678 3.527947 11.702249 1.238945 0.346185 0.928438 0.117115 0.579347 1.576801 0.186332 4.229393 10.810521 1.757093 4.982199 30.224389 2.213518 5.058710 8.236471 1.346198 1.678949 0.695666 -7.219250 0.921394 -5.679468 -1.102903 11.684553 -82.444637 3.928230 -9.414327 -6.624142 -28.805565 -9.245261 -0.015823 -2.929921 10.432519 -7.098350 7.977865 43.727449 -64.761788 -68.182293 7.032618 -0.223370 14.379229 -8.891875 -71.483783 11.051721 -123.764584 86.007653 -125.645780 -14.101613 -17.723254 5.329678 0.141203 0.867836 -0.233922 -0.691435 -69.134014 19.542189 72.359148 77.014661 70.183357 -10.116200 -4.825043 1.930272 0.048645 0.606644 -0.040922
-7.375469 45.748308 25.788877 159.180638 -17.647146 0.789948 3.537503 11.659353 1.313953 0.343515 0.924326 0.110041 0.589901 1.577578 0.194203 4.202804 10.811052 1.771112 5.374960 30.162619 2.372329 5.464000 8.177394 1.436025 1.706626 0.697690 -7.243207 0.953614 -5.715570 -1.012074 12.450702 -82.524127 3.174087 -9.359009 -6.714460 -28.914425 -9.296789 -0.120722 -2.946177 10.362434 -7.276733 8.086267 43.619689 -65.253607 -67.997894 6.971376 -0.382670 14.499908 -9.048283 -71.541443 11.221499 -125.087853 85.958625 -127.046379 -13.553957 -18.007340 5.462708 0.288394 0.771121 -0.225734 -0.961049 -69.177929 19.744272 72.384863 76.993413 70.242629 -10.068561 -4.859760 1.893430 0.032957 0.647369 -0.051612
-7.367288 45.737039 25.786732 159.163092 -17.591106 0.753487 3.564302 11.608443 1.367233 0.342516 0.920425 0.104728 0.588335 1.580430 0.204592 4.186695 10.810160 1.780038 5.747655 30.098604 2.518246 5.850271 8.115704 1.516114 1.735892 0.696235 -7.264064 0.991720 -5.755136 -0.920868 13.433283 -82.606857 2.199031 -9.285770 -6.806827 -29.044981 -9.354254 -0.219625 -2.960469 10.292966 -7.449964 8.185078 43.529854 -65.802331 -67.779593 6.893892 -0.548223 14.654505 -9.144763 -71.609553 11.368387 -125.817872 85.902676 -127.811340 -13.209889 -18.275921 5.560333 0.371108 0.697451 -0.204346 -1.142832 -69.231330 19.882501 72.402892 76.971185 70.300728 -10.031537 -4.886985 1.848884 0.032186 0.680476 -0.055058
